<?xml version="1.0" standalone="no"?>
<!DOCTYPE svg PUBLIC "-//W3C//DTD SVG 20010904//EN"
 "http://www.w3.org/TR/2001/REC-SVG-20010904/DTD/svg10.dtd">
<svg version="1.0" xmlns="http://www.w3.org/2000/svg"
 width="3500.000000pt" height="3500.000000pt" viewBox="0 0 3500.000000 3500.000000"
 preserveAspectRatio="xMidYMid meet">

<g transform="translate(0.000000,3500.000000) scale(0.100000,-0.100000)"
fill="#000000" stroke="none">
<path d="M17025 27209 c-1878 -105 -3646 -775 -5110 -1937 -521 -414 -1043
-936 -1457 -1457 -1500 -1891 -2176 -4296 -1882 -6695 203 -1649 849 -3193
1882 -4495 345 -434 778 -882 1206 -1249 1916 -1641 4434 -2398 6946 -2090
1649 203 3194 849 4495 1882 521 414 1043 936 1457 1457 1500 1891 2176 4296
1882 6695 -203 1649 -849 3193 -1882 4495 -345 434 -778 882 -1206 1249 -1426
1221 -3225 1973 -5081 2126 -366 30 -910 38 -1250 19z"/>
</g>
</svg>
